# xmcd
#
# Track frame offsets: 
#        150
#        32936
#        46623
#        71583
#        86956
#        107078
#        128799
#        154151
#        172299
#        190688
#        206644
#        229156
#        249759
#
# Disc length: 3565 seconds
#
# Revision: 1
# Processed by: cddbd v1.5.2PL0 Copyright (c) Steve Scherf et al.
# Submitted via: ExactAudioCopyFreeDBPlugin 1.0
#
DISCID=b10deb0d
DTITLE=群星【英】 - TEST-CD试音极品12CDA
DYEAR=2013
DGENRE=stereo
TTITLE0=Hotel California
TTITLE1=Over And Over
TTITLE2=Bressanone
TTITLE3=Ready for the times to get better
TTITLE4=Everybody Plays The Fool
TTITLE5=Killing Me Softly With His Song
TTITLE6=Your Latest Trick
TTITLE7=Habanera (Bizet)
TTITLE8=Besame Mucho
TTITLE9=So Much In Love
TTITLE10=Everytime I Close My Eyes
TTITLE11=The One You Love
TTITLE12=Up Where We Belong
EXTD=
EXTT0=
EXTT1=
EXTT2=
EXTT3=
EXTT4=
EXTT5=
EXTT6=
EXTT7=
EXTT8=
EXTT9=
EXTT10=
EXTT11=
EXTT12=
PLAYORDER=
